<svg xmlns="http://www.w3.org/2000/svg" viewBox="0 0 88.55 100.00" fill="none">
  <title>ARIA</title>
  <style>
    :root { color: #111111; }
    @media (prefers-color-scheme: dark) {
      :root { color: #f5f5f5; }
    }
  </style>
  <path fill="currentColor" d="M0.45,98.22 C0.45,97.93 1.75,94.35 2.26,93.21 C2.37,92.96 2.74,92.04 3.07,91.17 C3.75,89.39 4.55,87.30 5.33,85.29 C5.62,84.54 6.28,82.81 6.79,81.44 C9.47,74.31 13.81,69.01 19.81,65.53 C25.45,62.27 32.07,60.90 38.14,61.73 C44.21,62.56 48.61,64.48 53.95,68.62 C54.72,69.21 57.11,71.07 59.27,72.74 C61.42,74.41 63.41,75.93 63.68,76.11 C63.95,76.30 64.89,77.01 65.76,77.70 C69.74,80.86 74.57,84.49 74.78,84.49 C74.89,84.49 74.90,84.32 74.81,84.10 C74.45,83.24 73.28,80.19 72.44,77.93 C71.96,76.62 71.27,74.79 70.90,73.86 C70.27,72.22 69.29,69.61 67.88,65.82 C67.51,64.82 67.12,63.81 67.00,63.56 C66.88,63.31 66.55,62.44 66.26,61.63 C65.71,60.13 64.09,55.82 61.01,47.71 C60.06,45.22 58.64,41.45 57.84,39.33 C57.04,37.22 56.09,34.72 55.73,33.79 C55.37,32.85 54.70,31.07 54.23,29.83 C53.77,28.58 53.13,26.90 52.82,26.09 C52.28,24.68 51.78,23.36 50.59,20.21 C50.28,19.40 49.57,17.54 49.01,16.08 C48.45,14.62 47.99,13.33 47.99,13.20 C47.99,12.91 47.23,12.51 46.68,12.51 C46.07,12.51 45.57,13.14 45.06,14.56 C44.82,15.24 44.30,16.61 43.91,17.60 C43.52,18.60 43.06,19.82 42.89,20.32 C42.72,20.82 42.29,21.99 41.93,22.92 C41.56,23.86 40.89,25.64 40.42,26.88 C39.96,28.13 39.33,29.78 39.03,30.55 C38.73,31.31 38.48,32.01 38.48,32.10 C38.48,32.18 38.34,32.57 38.16,32.96 C37.76,33.84 36.97,35.87 35.81,39.00 C32.02,49.23 31.34,50.89 30.98,50.81 C30.81,50.77 28.79,50.02 26.49,49.14 C24.18,48.26 21.81,47.39 21.22,47.19 C20.57,46.97 20.15,46.70 20.15,46.49 C20.15,46.30 20.60,44.97 21.14,43.53 C21.69,42.09 22.46,40.05 22.85,39.00 C23.24,37.94 23.66,36.87 23.77,36.62 C23.89,36.37 24.23,35.50 24.52,34.69 C26.23,30.00 26.99,27.97 27.17,27.56 C27.28,27.31 27.70,26.24 28.09,25.19 C28.88,23.09 30.54,18.72 31.23,16.92 C32.39,13.88 32.85,12.66 33.69,10.40 C34.80,7.45 35.40,6.38 36.92,4.71 C39.51,1.88 42.81,0.45 46.75,0.46 C49.26,0.47 50.56,0.76 52.74,1.80 C54.74,2.76 57.46,5.34 58.47,7.22 C59.03,8.28 61.84,15.47 64.07,21.56 C64.55,22.87 65.26,24.76 65.65,25.75 C66.04,26.75 66.75,28.63 67.23,29.94 C68.49,33.34 69.03,34.74 69.27,35.26 C69.39,35.51 69.75,36.43 70.07,37.30 C71.26,40.56 72.43,43.69 73.12,45.45 C73.50,46.44 74.22,48.33 74.70,49.63 C75.19,50.94 75.90,52.83 76.29,53.82 C76.67,54.82 77.39,56.70 77.87,58.01 C78.35,59.32 79.05,61.15 79.41,62.08 C81.16,66.60 86.41,80.58 87.41,83.36 L88.10,85.29 L88.00,87.66 C87.89,90.21 87.47,91.60 86.23,93.44 C83.42,97.62 78.00,99.55 73.42,97.99 C71.49,97.34 70.60,96.78 67.23,94.18 C65.80,93.07 63.71,91.45 62.59,90.59 C57.43,86.62 54.03,84.00 51.84,82.32 C50.53,81.32 48.24,79.56 46.75,78.40 C42.67,75.24 39.77,73.99 35.86,73.70 C29.04,73.20 22.43,76.92 19.38,82.99 C18.80,84.13 18.07,85.77 17.74,86.65 C17.42,87.52 16.92,88.84 16.63,89.59 C16.34,90.34 15.75,91.91 15.31,93.10 C14.87,94.28 14.23,95.96 13.88,96.83 L13.23,98.42 L6.84,98.48 C1.46,98.53 0.45,98.49 0.45,98.22 Z"/>
</svg>
